<?xml version="1.0" standalone="no"?>
<!DOCTYPE svg PUBLIC "-//W3C//DTD SVG 20010904//EN"
 "http://www.w3.org/TR/2001/REC-SVG-20010904/DTD/svg10.dtd">
<svg version="1.0" xmlns="http://www.w3.org/2000/svg"
 width="700.000000pt" height="700.000000pt" viewBox="0 0 700.000000 700.000000"
 preserveAspectRatio="xMidYMid meet">
<metadata>
Created by potrace 1.11, written by Peter Selinger 2001-2013
</metadata>
<g transform="translate(0.000000,700.000000) scale(0.100000,-0.100000)"
fill="#000000" stroke="none">
<path d="M3221 6989 c-614 -47 -1228 -268 -1735 -623 -323 -227 -626 -530
-852 -852 -681 -972 -823 -2231 -374 -3323 181 -440 426 -808 765 -1146 278
-279 555 -480 897 -651 652 -327 1376 -442 2091 -334 939 143 1787 669 2333
1446 833 1188 843 2771 26 3969 -174 256 -434 540 -663 728 -703 574 -1593
855 -2488 786z m-1486 -1549 c450 -92 816 -394 1011 -834 75 -168 88 -217 184
-671 208 -982 349 -1424 551 -1725 102 -152 247 -275 339 -287 38 -5 43 -3 84
40 134 139 259 507 386 1137 121 598 252 925 476 1190 98 116 197 197 428 352
81 54 150 97 152 95 2 -2 -13 -26 -35 -53 -72 -91 -129 -193 -221 -399 -88
-196 -183 -497 -315 -998 -107 -410 -250 -742 -437 -1018 -142 -209 -337 -403
-474 -470 l-61 -30 -69 27 c-392 157 -787 611 -1066 1226 -125 276 -284 726
-313 883 -12 66 -84 333 -121 450 -128 397 -281 708 -446 906 -61 72 -146 148
-195 173 -82 41 -41 43 142 6z"/>
</g>
</svg>
